<?xml version="1.0" standalone="no"?>
<!DOCTYPE svg PUBLIC "-//W3C//DTD SVG 20010904//EN"
 "http://www.w3.org/TR/2001/REC-SVG-20010904/DTD/svg10.dtd">
<svg version="1.0" xmlns="http://www.w3.org/2000/svg"
 width="2048.000000pt" height="2048.000000pt" viewBox="0 0 2048.000000 2048.000000"
 preserveAspectRatio="xMidYMid meet">
<metadata>
Created by potrace 1.14, written by Peter Selinger 2001-2017
</metadata>
<g transform="translate(0.000000,2048.000000) scale(0.100000,-0.100000)"
fill="#000000" stroke="none">
<path d="M0 10240 l0 -10240 2558 2 2557 3 1 5110 c1 2933 5 5110 10 5110 9 0
185 -117 2014 -1340 2602 -1740 3091 -2065 3100 -2065 9 0 512 335 1375 915
313 211 841 564 1670 1120 668 448 1208 810 1658 1112 207 140 383 256 390
258 9 4 12 -1034 12 -5110 l0 -5115 2567 0 2568 0 0 10240 0 10240 -57 -38
c-32 -21 -107 -71 -168 -112 -60 -41 -121 -81 -135 -90 -14 -8 -383 -253 -820
-545 -437 -291 -803 -534 -812 -540 -18 -11 -524 -348 -1246 -831 -237 -159
-440 -294 -450 -299 -9 -6 -516 -343 -1127 -749 -610 -407 -1699 -1132 -2420
-1611 -720 -479 -1690 -1124 -2153 -1433 -464 -309 -848 -562 -853 -562 -4 0
-507 332 -1116 738 -1562 1041 -2245 1495 -2265 1507 -9 6 -144 95 -300 199
-156 104 -368 246 -473 315 -104 69 -194 130 -200 134 -5 4 -795 530 -1755
1169 -960 638 -2168 1443 -2685 1787 -517 344 -948 630 -957 636 -42 25 -291
192 -310 208 -12 9 -25 17 -29 17 -4 0 -14 6 -21 13 -7 6 -39 29 -70 50 l-58
37 0 -10240z"/>
</g>
</svg>
